<svg width="512" height="512" version="1.1" viewBox="0 0 512 512" xmlns="http://www.w3.org/2000/svg" xmlns:xlink="http://www.w3.org/1999/xlink">
    <path d="M 10,10 L 200,300 Q 200,100 400,40 Q 160,200 120,60 C 280,60 450,210 450,460"></path>
    <g>
        <g>
            <circle cx="10" cy="10" r="5" fill="black" fill-opacity="0.5"></circle>
            <circle cx="200" cy="300" r="5" fill="black" fill-opacity="0.5"></circle>
            <circle cx="400" cy="40" r="5" fill="black" fill-opacity="0.5"></circle>
            <circle cx="200" cy="100" r="5" fill="blue" fill-opacity="0.5"></circle>
            <circle cx="120" cy="60" r="5" fill="black" fill-opacity="0.5"></circle>
            <circle cx="160" cy="200" r="5" fill="blue" fill-opacity="0.5"></circle>
            <circle cx="450" cy="460" r="5" fill="black" fill-opacity="0.5"></circle>
            <circle cx="280" cy="60" r="5" fill="blue" fill-opacity="0.5"></circle>
            <circle cx="450" cy="210" r="5" fill="green" fill-opacity="0.5"></circle>
        </g>
    </g>
    <defs>
        <pattern id="patternqfvcvqfv" patternUnits="userSpaceOnUse" height="28" width="28">
            <g>
                <rect stroke="black" stroke-width="2" x="0" y="0" width="28" height="28" fill="#ff0"></rect>
                <path transform="translate(-2, -10) scale(.1)" d="m192 160 83.138 48v96l-83.138 48-83.138-48v-96z" fill="#800000"></path>
            </g>
        </pattern>
    </defs>
    <rect width="100%" height="100%" fill="url(#patternqfvcvqfv)"></rect>
</svg>