<svg width="512" height="512" version="1.1" viewBox="0 0 512 512" xmlns="http://www.w3.org/2000/svg">
    <g>
        <g transform="matrix(1 0 0 -1 147.14 -568.6)">
            <rect transform="scale(1,-1)" x="-147.14" y="568.6" width="512" height="512" ry="108.94" fill="none" stop-color="#000000" style="-inkscape-stroke:none;font-variation-settings:normal;paint-order:markers stroke fill"/>
            <g transform="translate(-10.12 20.853)">
                <path d="m278.74-1073.8c-11.937 37.157-5.724 66.135 10.566 100.82l-120.88 57.174c50.451 20.198 101.21 37.3 154.57 47.838l0.012 35.521 10.753 43.901-45.805-34.618c-31.466-17.144-56.987-25.101-90.8-12.727l11.794 87.267 38.639-39.266 100.47 53.057-51.309 111.09-131.3-10.56c-43.828-3.5242-95.284-35.616-117.17-73.536-15.887 15.471-20.903 42.261-20.547 64.574l0.75168 47.046-47.054 0.75416c-22.313 0.35632-49.103-4.6594-64.574-20.547 37.919-21.889 70.019-73.348 73.543-117.18l10.552-131.3-111.08-51.311 53.059-100.47-39.258-38.641 87.267-11.794c12.374 33.813 4.4143 59.326-12.73 90.793l-34.626 45.807 43.903-10.745 35.529-0.012c10.537-53.361 27.634-104.14 47.833-154.59l57.17 120.89c34.687-16.29 63.671-22.513 100.83-10.577-11.154-19.575-21.493-43.802-19.395-69.28 25.478 2.0978 49.707-8.2329 69.282-19.387z" fill="#004a24"/>
                <path d="m72.123-1036.1c-9.5828 114.5-11.661 359.95 135.37 344.75-121.33-6.2218-122.01-230.69-135.37-344.75zm227.32 351.95c-4.0657-12.752-17.982-19.94-30.735-15.875-12.752 4.0657-19.94 17.982-15.875 30.735 4.0657 12.752 17.982 19.94 30.735 15.875 12.752-4.0657 19.94-17.982 15.875-30.735zm-17.848-55.981c-4.0657-12.752-17.982-19.94-30.735-15.875-12.752 4.0657-19.94 17.982-15.875 30.735 4.0657 12.752 17.982 19.94 30.735 15.875 12.752-4.0657 19.94-17.982 15.875-30.735zm7.8514 59.168c2.3434 7.3498-1.7153 15.208-9.0651 17.551-7.3498 2.3434-15.208-1.7152-17.551-9.0651-2.3434-7.3498 1.7152-15.208 9.0651-17.551 7.3498-2.3434 15.208 1.7152 17.551 9.0651zm-17.848-55.981c2.3434 7.3498-1.7152 15.208-9.0651 17.551-7.3498 2.3434-15.208-1.7152-17.551-9.0651-2.3434-7.3498 1.7152-15.208 9.0651-17.551 7.3498-2.3434 15.208 1.7153 17.551 9.0651z" fill="#acff4c" stop-color="#000000" style="font-variation-settings:normal"/>
            </g>
        </g>
    </g>
</svg>
